<?xml version="1.0" encoding="UTF-8"?>
<svg version="1.1" xmlns="http://www.w3.org/2000/svg" width="768" height="470">
<path d="M0 0 C1.07765625 0.73476563 2.1553125 1.46953125 3.265625 2.2265625 C12.00761683 8.24885058 20.11899493 14.89548946 28 22 C28.8878418 22.79736572 29.77568359 23.59473145 30.69042969 24.41625977 C41.35291522 34.08009022 51.40227409 44.35617078 61.50341797 54.59936523 C70.00241653 63.2096623 78.373829 71.63900158 88 79 C89.03582611 79.84132798 90.07006362 80.68462224 91.1015625 81.53125 C104.0418662 91.62709066 118.02385146 98.31445371 134 102 C135.03898437 102.24492187 136.07796875 102.48984375 137.1484375 102.7421875 C166.30362335 108.32835172 195.5789413 101.32825764 220.16064453 85.25537109 C224.71683584 82.14574331 228.88597909 78.66486356 233 75 C234.22203125 73.95779297 234.22203125 73.95779297 235.46875 72.89453125 C245.35541655 64.30627186 254.25317955 54.55640674 262 44 C262.98318714 47.07853219 262.99466976 48.94367637 262.06640625 52.02734375 C261.71763428 53.19946411 261.71763428 53.19946411 261.36181641 54.39526367 C260.96615479 55.65367065 260.96615479 55.65367065 260.5625 56.9375 C260.15523682 58.25681519 260.15523682 58.25681519 259.73974609 59.6027832 C244.46667812 108.07052083 217.65115576 151.99395497 171.75 176.75 C119.80873809 203.61616995 52.59994408 205.26565381 -2.68115234 188.17089844 C-13.96218547 184.4760954 -24.55522757 179.60687334 -35 174 C-36.134375 173.40832031 -37.26875 172.81664062 -38.4375 172.20703125 C-52.21844467 164.72640272 -65.12741615 155.19041631 -76.48046875 144.37890625 C-78.48432117 142.48689676 -80.51578549 140.69012857 -82.60668945 138.89819336 C-87.21132402 134.87684402 -91.51461464 130.59451785 -95.8125 126.25 C-97.03223511 125.02458496 -97.03223511 125.02458496 -98.27661133 123.77441406 C-101.7217734 120.31304958 -105.1609029 116.84571409 -108.60058594 113.37890625 C-111.12746508 110.83384812 -113.65741315 108.29186869 -116.1875 105.75 C-116.95231689 104.97688477 -117.71713379 104.20376953 -118.50512695 103.40722656 C-143.81111124 77.98741393 -171.91555855 60.95323724 -208.5625 60.625 C-234.07109462 60.8540334 -258.199641 69.98999544 -278 86 C-278.53689453 86.43151367 -279.07378906 86.86302734 -279.62695312 87.30761719 C-291.90941592 97.25682747 -302.37872654 108.46404664 -312 121 C-313.22307387 117.4802595 -312.76610769 115.29521043 -311.69921875 111.765625 C-311.23068481 110.21029053 -311.23068481 110.21029053 -310.75268555 108.62353516 C-310.40117432 107.51026855 -310.04966309 106.39700195 -309.6875 105.25 C-309.32503174 104.09419434 -308.96256348 102.93838867 -308.58911133 101.74755859 C-300.50671637 76.59737984 -289.60797251 52.68108494 -273 32 C-272.52449707 31.40493652 -272.04899414 30.80987305 -271.55908203 30.19677734 C-242.94055986 -5.24888309 -203.38584914 -23.63406447 -159 -31 C-158.22640137 -31.13277344 -157.45280273 -31.26554688 -156.65576172 -31.40234375 C-105.01425334 -39.83747887 -43.16795414 -30.70019099 0 0 Z " fill="#37BCF8" transform="translate(313,263)"/>
<path d="M0 0 C3.07344483 0.00314853 6.14591221 -0.02035842 9.21923828 -0.0456543 C30.47742891 -0.11390145 50.98876652 2.6262515 71.47314453 8.31567383 C72.22869629 8.52530762 72.98424805 8.73494141 73.76269531 8.95092773 C115.40962587 20.88022493 147.07416759 48.48100065 176.84814453 78.62817383 C179.52291188 81.33074793 182.19922829 84.0317433 184.87857056 86.7297821 C186.5309922 88.39427048 188.18073745 90.061422 189.82723999 91.73176575 C194.53629602 96.48155408 199.38436605 100.97647162 204.47314453 105.31567383 C205.43478516 106.1587207 206.39642578 107.00176758 207.38720703 107.87036133 C231.34352033 128.37475628 258.71824783 138.61458241 290.47314453 137.31567383 C316.85354095 135.20040722 339.61135372 123.34848554 359.47314453 106.31567383 C360.28009766 105.6324707 361.08705078 104.94926758 361.91845703 104.24536133 C369.96492113 97.28994321 376.37181504 89.29064093 382.83007812 80.88745117 C384.02243647 79.3462534 385.24501712 77.82852282 386.47314453 76.31567383 C386.80314453 76.31567383 387.13314453 76.31567383 387.47314453 76.31567383 C386.94854031 84.33093831 384.82176372 91.46618725 382.28564453 99.06567383 C382.06994812 99.71274292 381.85425171 100.35981201 381.63201904 101.02648926 C372.73594257 127.45091013 359.91301933 152.26068952 341.47314453 173.31567383 C340.72291016 174.18708008 339.97267578 175.05848633 339.19970703 175.95629883 C334.60982281 181.18845354 329.87677523 185.93283299 324.47314453 190.31567383 C323.57466797 191.06333008 322.67619141 191.81098633 321.75048828 192.58129883 C277.91852829 227.82418954 218.7495251 235.9112237 164.20361328 230.07348633 C118.36063166 224.42760308 79.0202164 205.73104424 45.04467773 174.65136719 C43.52659075 173.27250664 41.99921691 171.90356286 40.45166016 170.55786133 C30.31029347 161.68764491 21.01857599 151.89301579 11.56176758 142.30834961 C-1.37435088 129.13621416 -1.37435088 129.13621416 -15.52685547 117.31567383 C-16.11958252 116.85854004 -16.71230957 116.40140625 -17.32299805 115.93041992 C-41.58051509 97.55592995 -70.14830054 91.35074844 -100.29980469 94.6159668 C-126.282616 98.64291781 -148.56982881 112.98227251 -167.14599609 130.98168945 C-168.32717213 132.12276899 -169.52679759 133.24469807 -170.72998047 134.36254883 C-175.67606019 139.06735637 -179.80476948 144.32811185 -183.93554688 149.74487305 C-185.11265442 151.28397371 -186.31720506 152.80201637 -187.52685547 154.31567383 C-187.85685547 154.31567383 -188.18685547 154.31567383 -188.52685547 154.31567383 C-184.25399639 112.06717953 -156.79303419 66.93579758 -124.64697266 39.72436523 C-101.90972883 21.24963944 -75.29900451 10.2608913 -46.83935547 4.06567383 C-45.80983765 3.83895996 -45.80983765 3.83895996 -44.75952148 3.60766602 C-29.9100538 0.57653403 -15.11305347 -0.03220619 0 0 Z " fill="#37BDF8" transform="translate(380.52685546875,-0.315673828125)"/>
</svg>
